# xmcd
#
# Track frame offsets:
#	183
#	18933
#	33660
#	52008
#	67885
#	85695
#	102178
#	115628
#	134533
#	150473
#
# Disc length: 2251 seconds
#
# Revision: 1
# Processed by: cddbd v1.5.2PL0 Copyright (c) Steve Scherf et al.
# Submitted via: audiograbber 1.83.01
#
DISCID=7608c90a
DTITLE=Juice Newton - Quiet Lies
DYEAR=1982
DGENRE=Country
TTITLE0=Heart Of The Night
TTITLE1=Love's Been A Little Bit Hard On Me
TTITLE2=Break It To Me Gently
TTITLE3=Love Sail Away
TTITLE4=I'm Dancing As Fast As I Can
TTITLE5=I'm Gonna Be Strong
TTITLE6=Trail Of Tears
TTITLE7=Adios Mi Corazon
TTITLE8=Falling In Love
TTITLE9=Ever True
EXTD=
EXTT0=
EXTT1=
EXTT2=
EXTT3=
EXTT4=
EXTT5=
EXTT6=
EXTT7=
EXTT8=
EXTT9=
PLAYORDER=
